<?xml version="1.0" encoding="UTF-8" standalone="no"?>
<!-- Generator: Adobe Illustrator 21.0.2, SVG Export Plug-In . SVG Version: 6.00 Build 0)  -->

<svg
   xmlns:dc="http://purl.org/dc/elements/1.1/"
   xmlns:cc="http://creativecommons.org/ns#"
   xmlns:rdf="http://www.w3.org/1999/02/22-rdf-syntax-ns#"
   xmlns:svg="http://www.w3.org/2000/svg"
   xmlns="http://www.w3.org/2000/svg"
   xmlns:sodipodi="http://sodipodi.sourceforge.net/DTD/sodipodi-0.dtd"
   xmlns:inkscape="http://www.inkscape.org/namespaces/inkscape"
   version="1.1"
   id="Слой_1"
   x="0px"
   y="0px"
   viewBox="0 0 49.8 55"
   style="enable-background:new 0 0 49.8 55;"
   xml:space="preserve"
   sodipodi:docname="1turniket.svg"
   inkscape:version="0.92.1 r15371"><metadata
     id="metadata4604"><rdf:RDF><cc:Work
         rdf:about=""><dc:format>image/svg+xml</dc:format><dc:type
           rdf:resource="http://purl.org/dc/dcmitype/StillImage" /></cc:Work></rdf:RDF></metadata><defs
     id="defs4602" /><sodipodi:namedview
     pagecolor="#ffffff"
     bordercolor="#666666"
     borderopacity="1"
     objecttolerance="10"
     gridtolerance="10"
     guidetolerance="10"
     inkscape:pageopacity="0"
     inkscape:pageshadow="2"
     inkscape:window-width="1920"
     inkscape:window-height="1138"
     id="namedview4600"
     showgrid="false"
     inkscape:zoom="8"
     inkscape:cx="-13.74524"
     inkscape:cy="42.651677"
     inkscape:window-x="-8"
     inkscape:window-y="-8"
     inkscape:window-maximized="1"
     inkscape:current-layer="Слой_1" /><style
     type="text/css"
     id="style4579">
	.st0{fill:none;stroke:#284288;stroke-miterlimit:10;}
	.st1{enable-background:new    ;}
	.st2{fill:#003C8E;}
</style><path
     class="st0"
     d="M34.4,46"
     id="path4581" /><g
     class="st1"
     id="g4585"><path
       class="st2"
       d="M44.2,40.3h-1.5v-1.8h3.6v10.6h-2.1L44.2,40.3L44.2,40.3z"
       id="path4583" /></g><g
     id="g4597"><polygon
       class="st0"
       points="12.2,18.2 23.5,6.9 19.3,2.6 9.6,12.3 9.7,20.6 9.7,47.8 9.7,51.3 12.2,51.3 21.1,51.3 21.1,49.5    12.2,48.1  "
       id="polygon4587" /><path
       class="st0"
       d="M19.7,13.6c-1.4,1.4-3.2,1.9-4,1.1l5.2-5.2C21.6,10.4,21.1,12.2,19.7,13.6z"
       id="path4589" /><path
       class="st0"
       d="M 42.9,10.7 H 42.7 21.2 l -0.3,1.7 h 21.8 0.2 c 0.5,0 0.9,-0.366854 0.9,-0.866854 C 43.799437,11.055806 43.3,10.7 42.9,10.7 Z"
       id="path4591"
       inkscape:connector-curvature="0"
       style="fill:none;stroke:#284288;stroke-miterlimit:10"
       sodipodi:nodetypes="sccccscs" /><path
       class="st0"
       d="M 18.3,36.6 V 14.7 l -1.7,0.5 v 21.4 0.2 c 0,0.5 0.4,0.9 0.9,0.9 0.5,0 0.802344,-0.4 0.802344,-0.9 C 18.3,36.684375 18.3,36.6 18.3,36.6 Z"
       id="path4593"
       inkscape:connector-curvature="0"
       style="fill:none;stroke:#284288;stroke-miterlimit:10"
       sodipodi:nodetypes="ccccsscc" /><path
       class="st0"
       d="M 35.4,28.2 20.3,13.1 19,14.2 34.2,29.4 c 0.266291,0.239233 0.455243,0.483427 0.855243,0.483427 0.5,0 0.806087,-0.36133 0.806087,-0.86133 0,-0.4 -0.255243,-0.633709 -0.46133,-0.822097 z"
       id="path4595"
       inkscape:connector-curvature="0"
       style="fill:none;stroke:#284288;stroke-miterlimit:10"
       sodipodi:nodetypes="ccccssc" /></g></svg>