<?xml version="1.0" encoding="utf-8"?>
<!-- Generator: Adobe Illustrator 21.0.2, SVG Export Plug-In . SVG Version: 6.00 Build 0)  -->
<svg version="1.1" id="Слой_1" xmlns="http://www.w3.org/2000/svg" xmlns:xlink="http://www.w3.org/1999/xlink" x="0px" y="0px"
	 viewBox="0 0 67 55" style="enable-background:new 0 0 67 55;" xml:space="preserve">
<style type="text/css">
	.st0{fill:none;stroke:#284288;stroke-miterlimit:10;}
	.st1{fill:#BDBEC0;}
	.st2{enable-background:new    ;}
	.st3{fill:#003C8E;}
</style>
<polyline class="st0" points="24.5,21.1 39.9,5.6 61.8,27.5 39.9,49.4 24,33.4 "/>
<g id="Bullet_3_-_Right">
	<g>
		<g>
			<path class="st1" d="M12.9,17.7V23l1.3,1.3h27.1v6.3H14.2L12.9,32v5.3L2.5,27.5L12.9,17.7 M14.2,14.6L0.6,27.5l13.6,12.9V32h28.4
				v-9H14.2V14.6L14.2,14.6z"/>
		</g>
	</g>
</g>
<g class="st2">
	<path class="st3" d="M66.3,46.3c0,1.7-1.4,3.1-3.7,3.1s-3.7-1.4-3.7-3.1c0-1.2,0.7-2.3,1.9-2.6c-0.8-0.4-1.5-1.2-1.5-2.4
		c0-1.5,1.1-3,3.3-3s3.3,1.4,3.3,3c0,1.2-0.7,2-1.5,2.4C65.6,44,66.3,45,66.3,46.3z M64.2,46.1c0-1-0.7-1.7-1.6-1.7
		c-0.9,0-1.6,0.7-1.6,1.7s0.7,1.7,1.6,1.7C63.5,47.8,64.2,47.1,64.2,46.1z M64.1,41.3c0-0.9-0.6-1.5-1.5-1.5c-0.9,0-1.5,0.6-1.5,1.5
		c0,0.9,0.6,1.5,1.5,1.5C63.5,42.8,64.1,42.2,64.1,41.3z"/>
</g>
</svg>
