<svg xmlns="http://www.w3.org/2000/svg" viewBox="0 -2.904 56.914 55" enable-background="new 0 -2.904 56.914 55">
 <path fill="none" stroke="#284288" stroke-miterlimit="10" d="m55.04 14.422c0 .49-.396.889-.887.889h-19.86c-.49 0-.889-.397-.889-.889v-13.534c0-.49.398-.888.889-.888h19.86c.491 0 .887.396.887.888v13.534z"/>
 <path fill="none" stroke="#284288" stroke-miterlimit="10" d="m41.4 15.31h6.656v3.106h-6.656z"/>
 <path fill="none" stroke="#284288" stroke-miterlimit="10" d="m54.21 18.472h-20.03"/>
 <path fill="none" stroke="#284288" stroke-miterlimit="10" d="m34.19 1.775h20.03v11.348h-20.03z"/>
 <path fill="none" stroke="#284288" stroke-miterlimit="10" d="m29.582 26.981c0 .491-.396.89-.888.89h-19.86c-.489 0-.887-.396-.887-.89v-13.534c0-.49.397-.889.887-.889h19.86c.49 0 .889.396.889.889v13.534z"/>
 <path fill="none" stroke="#284288" stroke-miterlimit="10" d="m15.937 27.868h6.656v3.104h-6.656z"/>
 <path fill="none" stroke="#284288" stroke-miterlimit="10" d="m28.747 31.03h-20.02"/>
 <path fill="none" stroke="#284288" stroke-miterlimit="10" d="m8.724 14.331h20.02v11.351h-20.02z"/>
 <path fill="none" stroke="#bdbec0" stroke-linejoin="bevel" stroke-miterlimit="10" d="m7.06 22.14h-4.974v-17.12h30.763"/>
 <path fill="#003c8e" d="M7.009,39.647H3.167v2.385h3.682v1.793H3.167v2.914h3.842v1.793H1.087V37.854h5.922V39.647z"/>
 <path fill="#003c8e" d="M10.904,43.264v5.268H8.952v-5.268H8.184V41.6h0.769v-2.369h1.952V41.6h1.345v1.664H10.904z"/>
 <path fill="#003c8e" d="m13.303 36.862h1.952v5.635c.368-.512 1.024-1.121 2.146-1.121.607 0 1.504.178 2.049.85.479.592.544 1.279.544 1.953v4.354h-1.954v-3.777c0-.385-.016-.992-.368-1.361-.304-.32-.72-.352-.912-.352-.512 0-.912.176-1.2.607-.288.449-.305.945-.305 1.346v3.537h-1.952v-11.671"/>
 <path fill="#003c8e" d="m28.638 46.594c-.208.512-.993 2.16-3.41 2.16-1.12 0-1.969-.318-2.656-.975-.769-.721-1.089-1.617-1.089-2.705 0-1.377.561-2.227 1.057-2.723.816-.799 1.776-.977 2.609-.977 1.408 0 2.225.561 2.705 1.137.736.881.832 1.969.832 2.723v.158h-5.187c0 .418.112.865.336 1.17.209.287.641.656 1.393.656.736 0 1.297-.354 1.617-.912l1.793.288m-1.793-2.449c-.16-.943-.929-1.393-1.648-1.393-.721 0-1.473.465-1.633 1.393h3.281"/>
 <path fill="#003c8e" d="m30.22 41.6h1.952v1.041c.305-.592.721-.881.864-.961.305-.191.688-.305 1.153-.305.336 0 .607.08.832.16l-.256 1.826c-.257-.176-.513-.256-.913-.256-.368 0-.912.08-1.296.559-.368.465-.385 1.057-.385 1.537v3.33h-1.952v-6.931"/>
 <path fill="#003c8e" d="m36.05 41.6h1.952v.896c.368-.512 1.024-1.121 2.146-1.121.608 0 1.504.178 2.049.85.479.592.544 1.279.544 1.953v4.354h-1.953v-3.777c0-.385-.016-.992-.368-1.361-.304-.32-.72-.352-.912-.352-.512 0-.912.176-1.2.607-.288.449-.305.945-.305 1.346v3.537h-1.952v-6.932"/>
 <path fill="#003c8e" d="m51.39 46.594c-.208.512-.993 2.16-3.41 2.16-1.12 0-1.969-.318-2.656-.975-.769-.721-1.089-1.617-1.089-2.705 0-1.377.561-2.227 1.057-2.723.816-.799 1.776-.977 2.609-.977 1.408 0 2.225.561 2.705 1.137.736.881.832 1.969.832 2.723v.158h-5.187c0 .418.112.865.336 1.17.209.287.641.656 1.393.656.736 0 1.297-.354 1.617-.912l1.793.288m-1.793-2.449c-.16-.943-.929-1.393-1.648-1.393-.721 0-1.473.465-1.633 1.393h3.281"/>
 <path fill="#003c8e" d="m54.969 43.26v5.268h-1.952v-5.268h-.769v-1.664h.769v-2.369h1.952v2.369h1.345v1.664h-1.345"/>
</svg>
